<mxfile host="65bd71144e" modified="2020-10-19T15:55:17.039Z" agent="5.0 (Windows NT 10.0; Win64; x64) AppleWebKit/537.36 (KHTML, like Gecko) Code/1.50.0 Chrome/83.0.4103.122 Electron/9.2.1 Safari/537.36" version="13.6.5" etag="H71wUMrhDjYKbz3q3KdU">
    <diagram id="_AOtZ-W2rB_Ql6_DwQJR" name="Page-1">
        <mxGraphModel dx="1323" dy="593" grid="1" gridSize="10" guides="1" tooltips="1" connect="1" arrows="1" fold="1" page="1" pageScale="1" pageWidth="827" pageHeight="1169" math="0" shadow="0">
            <root>
                <mxCell id="0"/>
                <mxCell id="1" parent="0"/>
                <mxCell id="2" value="employee" style="whiteSpace=wrap;html=1;align=center;" vertex="1" parent="1">
                    <mxGeometry x="340" y="100" width="100" height="40" as="geometry"/>
                </mxCell>
                <mxCell id="3" value="task" style="whiteSpace=wrap;html=1;align=center;" vertex="1" parent="1">
                    <mxGeometry x="180" y="280" width="100" height="40" as="geometry"/>
                </mxCell>
                <mxCell id="4" value="priority" style="whiteSpace=wrap;html=1;align=center;" vertex="1" parent="1">
                    <mxGeometry x="490" y="280" width="100" height="40" as="geometry"/>
                </mxCell>
                <mxCell id="5" value="customer" style="whiteSpace=wrap;html=1;align=center;" vertex="1" parent="1">
                    <mxGeometry x="340" y="420" width="100" height="40" as="geometry"/>
                </mxCell>
            </root>
        </mxGraphModel>
    </diagram>
</mxfile>